<svg width="1774" height="1898" viewBox="0 0 1774 1898" fill="none" xmlns="http://www.w3.org/2000/svg">
<g clip-path="url(#clip0_138_447)">
<path d="M1076.34 1160.71L1500.29 1594.95" stroke="#303037" stroke-width="8.23202"/>
<path d="M1156.6 1051.64L1722.55 1255.38" stroke="#303037" stroke-width="8.23202"/>
<path d="M1160.71 963.146H1771.94" stroke="#303037" stroke-width="8.23202"/>
<path d="M1138.08 837.608L1691.68 570.067" stroke="#303037" stroke-width="8.23202"/>
<path d="M1420.02 257.251L1072.22 728.534" stroke="#303037" stroke-width="8.23202"/>
<path d="M1061.93 86.4363L915.812 677.084" stroke="#303037" stroke-width="8.23202"/>
<path d="M658.562 90.5522L804.68 697.664" stroke="#303037" stroke-width="8.23202"/>
<path d="M298.411 286.062L689.432 744.997" stroke="#303037" stroke-width="8.23202"/>
<path d="M67.9141 609.169L640.039 843.782" stroke="#303037" stroke-width="8.23202"/>
<path d="M0 1006.36L611.227 973.436" stroke="#303037" stroke-width="8.23202"/>
<path d="M104.958 1399.44L635.923 1076.34" stroke="#303037" stroke-width="8.23202"/>
<path d="M382.789 1675.22L726.476 1173.06" stroke="#303037" stroke-width="8.23202"/>
<path d="M757.346 1841.91L845.84 1210.11" stroke="#303037" stroke-width="8.23202"/>
<path d="M965.204 1210.11L1158.66 1808.99" stroke="#303037" stroke-width="8.23202"/>
<path d="M1273.9 959.215C1273.9 1172.96 1098.88 1346.3 882.884 1346.3C666.89 1346.3 491.863 1172.96 491.863 959.215C491.863 745.47 666.89 572.126 882.884 572.126C1098.88 572.126 1273.9 745.47 1273.9 959.215Z" stroke="#303037" stroke-width="8.23202"/>
<path d="M1408.6 957.3C1408.6 1245 1173.01 1478.3 882.315 1478.3C591.62 1478.3 356.035 1245 356.035 957.3C356.035 669.597 591.62 436.297 882.315 436.297C1173.01 436.297 1408.6 669.597 1408.6 957.3Z" stroke="#303037" stroke-width="8.23202"/>
<path d="M1537.81 946.518C1537.81 1305.56 1243.81 1596.68 881.064 1596.68C518.317 1596.68 224.322 1305.56 224.322 946.518C224.322 587.48 518.317 296.353 881.064 296.353C1243.81 296.353 1537.81 587.48 1537.81 946.518Z" stroke="#303037" stroke-width="8.23202"/>
<path d="M1665.4 957.597C1665.4 1386.4 1314.28 1734.09 881.064 1734.09C447.847 1734.09 96.7262 1386.4 96.7262 957.597C96.7262 528.791 447.847 181.105 881.064 181.105C1314.28 181.105 1665.4 528.791 1665.4 957.597Z" stroke="#303037" stroke-width="8.23202"/>
<path d="M1148.37 961.088C1148.37 1105.11 1030.76 1222.45 884.942 1222.45C739.127 1222.45 621.517 1105.11 621.517 961.088C621.517 817.067 739.127 699.722 884.942 699.722C1030.76 699.722 1148.37 817.067 1148.37 961.088Z" stroke="white" stroke-width="107.016"/>
<path fill-rule="evenodd" clip-rule="evenodd" d="M1231.21 967.262C1231.21 966.577 1231.21 965.891 1231.21 965.204C1231.21 776.523 1077.1 622.55 885.722 622.55C694.349 622.55 540.23 776.523 540.23 965.204C540.23 1137.08 668.114 1280.15 835.55 1304.28V1396.61C617.789 1371.89 448.645 1188.17 448.645 965.204C448.645 725.381 644.331 530.965 885.722 530.965C1127.11 530.965 1322.8 725.381 1322.8 965.204C1322.8 965.891 1322.8 966.577 1322.79 967.262H1231.21Z" fill="#BCBCBD"/>
<path fill-rule="evenodd" clip-rule="evenodd" d="M882.138 236.544C764.511 237.27 653.732 265.829 556.052 315.845L506.83 238.211C618.737 179.426 746.187 145.796 881.572 144.96C1330.38 142.19 1696.44 500.868 1699.19 946.089C1699.22 951.621 1699.2 957.14 1699.12 962.645L1607.54 961.94C1607.61 956.857 1607.64 951.762 1607.61 946.655C1605.17 552.705 1281.06 234.081 882.138 236.544Z" fill="#414144"/>
<path fill-rule="evenodd" clip-rule="evenodd" d="M1480.73 965.818C1480.72 966.408 1480.72 966.997 1480.72 967.587H1572.3C1572.31 966.251 1572.32 964.915 1572.32 963.578C1572.32 585.987 1263.65 279.889 882.884 279.889C502.121 279.889 193.452 585.987 193.452 963.578C193.452 1163.87 280.302 1344.04 418.694 1469.09L474.367 1395.89C357.77 1287.74 285.037 1133.9 285.037 963.578C285.037 637.288 551.979 371.474 882.884 371.474C1213.79 371.474 1480.73 637.288 1480.73 963.578C1480.73 964.325 1480.73 965.072 1480.73 965.818Z" fill="#6A6A6C"/>
<path fill-rule="evenodd" clip-rule="evenodd" d="M1353.13 964.99C1353.13 965.865 1353.13 966.74 1353.13 967.614H1444.71C1444.72 966.97 1444.72 966.326 1444.72 965.681L1444.72 964.99C1444.72 652.542 1193.18 399.253 882.884 399.253C572.591 399.253 321.049 652.542 321.049 964.99C321.049 1189.7 451.161 1383.82 639.663 1475.11L681.148 1393.94V1393.39C522.573 1317.34 412.634 1154.38 412.634 964.99C412.634 702.524 623.768 490.838 882.884 490.838C1142 490.838 1353.13 702.524 1353.13 964.99Z" fill="#939395"/>
</g>
<defs>
<clipPath id="clip0_138_447">
<rect width="1774" height="1897.48" fill="white"/>
</clipPath>
</defs>
</svg>
