<svg width="1774" height="1760" viewBox="0 0 1774 1760" fill="none" xmlns="http://www.w3.org/2000/svg">
<g clip-path="url(#clip0_138_447)">
<path d="M1076.34 1074.28L1500.29 1508.52" stroke="white" stroke-width="15"/>
<path d="M1156.6 965.204L1722.55 1168.95" stroke="white" stroke-width="15"/>
<path d="M1159 839H1770.23" stroke="white" stroke-width="15"/>
<path d="M1138.08 751.172L1691.68 483.631" stroke="white" stroke-width="15"/>
<path d="M1420.02 170.814L1072.22 642.098" stroke="white" stroke-width="15"/>
<path d="M1061.93 0L915.812 590.647" stroke="white" stroke-width="15"/>
<path d="M658.562 4.11597L804.68 611.227" stroke="white" stroke-width="15"/>
<path d="M298.411 199.626L689.432 658.561" stroke="white" stroke-width="15"/>
<path d="M67.9141 522.733L640.039 757.346" stroke="white" stroke-width="15"/>
<path d="M0 919.928L611.227 887" stroke="white" stroke-width="15"/>
<path d="M104.958 1313.01L635.923 989.9" stroke="white" stroke-width="15"/>
<path d="M382.789 1588.78L726.476 1086.63" stroke="white" stroke-width="15"/>
<path d="M757.346 1755.48L845.84 1123.67" stroke="white" stroke-width="15"/>
<path d="M965.204 1123.67L1158.66 1722.55" stroke="white" stroke-width="15"/>
<path d="M1295.5 855.5C1295.5 1076.98 1116.4 1256.5 895.5 1256.5C674.603 1256.5 495.5 1076.98 495.5 855.5C495.5 634.016 674.603 454.5 895.5 454.5C1116.4 454.5 1295.5 634.016 1295.5 855.5Z" stroke="white" stroke-width="15"/>
<path d="M1405.5 836C1405.5 1117.77 1171.51 1346.5 882.5 1346.5C593.485 1346.5 359.5 1117.77 359.5 836C359.5 554.226 593.485 325.5 882.5 325.5C1171.51 325.5 1405.5 554.226 1405.5 836Z" stroke="white" stroke-width="15"/>
<path d="M1534.5 839C1534.5 1184.29 1248.12 1464.5 894.5 1464.5C540.877 1464.5 254.5 1184.29 254.5 839C254.5 493.705 540.877 213.5 894.5 213.5C1248.12 213.5 1534.5 493.705 1534.5 839Z" stroke="white" stroke-width="15"/>
<circle cx="892.5" cy="852.5" r="792" stroke="white" stroke-width="15"/>
<path d="M1166.91 825.707C1166.91 969.728 1049.3 1087.07 903.489 1087.07C757.675 1087.07 640.065 969.728 640.065 825.707C640.065 681.687 757.675 564.341 903.489 564.341C1049.3 564.341 1166.91 681.687 1166.91 825.707Z" stroke="white" stroke-width="107.016"/>
<path fill-rule="evenodd" clip-rule="evenodd" d="M1249.76 831.882C1249.76 831.196 1249.76 830.51 1249.76 829.824C1249.76 641.143 1095.64 487.17 904.27 487.17C712.896 487.17 558.778 641.143 558.778 829.824C558.778 1001.7 686.662 1144.77 854.098 1168.9V1261.23C636.336 1236.51 467.193 1052.79 467.193 829.824C467.193 590 662.879 395.585 904.27 395.585C1145.66 395.585 1341.35 590 1341.35 829.824C1341.35 830.51 1341.35 831.196 1341.34 831.882H1249.76Z" fill="#BCBCBD"/>
<path fill-rule="evenodd" clip-rule="evenodd" d="M900.685 101.163C783.04 101.889 672.196 130.604 574.452 180.909L525.38 103.199C637.286 44.1788 764.735 10.4154 900.12 9.57969C1348.93 6.80944 1715 366.951 1717.76 813.979C1717.79 819.533 1717.77 825.075 1717.69 830.603L1626.11 829.892C1626.18 824.789 1626.21 819.673 1626.17 814.545C1623.73 418.44 1299.26 98.7027 900.685 101.163Z" fill="#414144"/>
<path fill-rule="evenodd" clip-rule="evenodd" d="M1499.27 830.437C1499.27 831.027 1499.27 831.617 1499.26 832.206H1590.85C1590.86 830.871 1590.86 829.534 1590.86 828.197C1590.86 450.606 1282.19 144.508 901.432 144.508C520.669 144.508 212 450.606 212 828.197C212 1028.49 298.85 1208.66 437.241 1333.71L492.914 1260.51C376.317 1152.35 303.585 998.515 303.585 828.197C303.585 501.908 570.526 236.093 901.432 236.093C1232.34 236.093 1499.28 501.908 1499.28 828.197C1499.28 828.944 1499.28 829.691 1499.27 830.437Z" fill="#6A6A6C"/>
<path fill-rule="evenodd" clip-rule="evenodd" d="M1371.68 829.609C1371.68 830.484 1371.68 831.359 1371.67 832.234H1463.26C1463.26 831.589 1463.27 830.945 1463.27 830.3L1463.27 829.609C1463.27 517.161 1211.72 263.872 901.432 263.872C591.139 263.872 339.596 517.161 339.596 829.609C339.596 1054.32 469.708 1248.44 658.211 1339.73L699.696 1258.56V1258.01C541.121 1181.96 431.181 1019 431.181 829.609C431.181 567.144 642.316 355.457 901.432 355.457C1160.55 355.457 1371.68 567.144 1371.68 829.609Z" fill="#939395"/>
</g>
<defs>
<clipPath id="clip0_138_447">
<rect width="1774" height="1760" fill="white"/>
</clipPath>
</defs>
</svg>
